{"title":"Humpty.Sharma.Ki.Dulhania.2014.Hindi.DVDRip.XviD.Esubs-N3kr4","uid":10823544,"size":732486997,"categoryP":"video","categoryS":"hd___movies","magnet":"?xt=urn:btih:84c2e6f8526f84ecc9781b09627972f6ffc21b88&amp;dn=Humpty.Sharma.Ki.Dulhania.2014.Hindi.DVDRip.XviD.Esubs-N3kr4&amp;tr=udp%3A%2F%2Ftracker.openbittorrent.com%3A80&amp;tr=udp%3A%2F%2Fopen.demonii.com%3A1337&amp;tr=udp%3A%2F%2Ftracker.coppersurfer.tk%3A6969&amp;tr=udp%3A%2F%2Fexodus.desync.com%3A6969","seeders":2,"leechers":0,"uploader":"Falcon.G13","files":2,"time":1408559870,"description":" &lt;a href=&quot;http://i.imgur.com/eA2X5Vv.jpg&quot; rel=&quot;nofollow&quot; target=&quot;_NEW&quot;&gt;http://i.imgur.com/eA2X5Vv.jpg&lt;/a&gt; &lt;a href=&quot;\nhttp://i.imgur.com/A98kCqv.jpg&quot; rel=&quot;nofollow&quot; target=&quot;_NEW&quot;&gt;\nhttp://i.imgur.com/A98kCqv.jpg&lt;/a&gt; &lt;a href=&quot;\nhttp://i.imgur.com/zqu5DmU.jpg&quot; rel=&quot;nofollow&quot; target=&quot;_NEW&quot;&gt;\nhttp://i.imgur.com/zqu5DmU.jpg&lt;/a&gt; &lt;a href=&quot;\nhttp://i.imgur.com/2lrF07n.jpg&quot; rel=&quot;nofollow&quot; target=&quot;_NEW&quot;&gt;\nhttp://i.imgur.com/2lrF07n.jpg&lt;/a&gt; &lt;a href=&quot;\nhttp://i.imgur.com/7mU1zS5.jpg&quot; rel=&quot;nofollow&quot; target=&quot;_NEW&quot;&gt;\nhttp://i.imgur.com/7mU1zS5.jpg&lt;/a&gt; &lt;a href=&quot;\nhttp://i.imgur.com/RIIWpKN.jpg&quot; rel=&quot;nofollow&quot; target=&quot;_NEW&quot;&gt;\nhttp://i.imgur.com/RIIWpKN.jpg&lt;/a&gt; &lt;a href=&quot;\nhttp://i.imgur.com/ywTx03w.jpg&quot; rel=&quot;nofollow&quot; target=&quot;_NEW&quot;&gt;\nhttp://i.imgur.com/ywTx03w.jpg&lt;/a&gt; &lt;a href=&quot;\nhttp://i.imgur.com/FcMD8p6.jpg&quot; rel=&quot;nofollow&quot; target=&quot;_NEW&quot;&gt;\nhttp://i.imgur.com/FcMD8p6.jpg&lt;/a&gt;\n\nGeneral\nComplete name :Humpty.Sharma.Ki.Dulhania.2014.Hindi.DVDRip.XviD.Esubs-N3kr4.avi\nFormat : Matroska\nFormat version : Version 4 / Version 2\nFile size : 698 MiB\nDuration : 2h 11mn\nOverall bit rate : 742 Kbps\n\nVideo\nID : 1\nFormat : MPEG-4 Visual\nFormat profile : Advanced Simple@L5\nFormat settings, BVOP : Yes\nFormat settings, QPel : No\nFormat settings, GMC : No warppoints\nFormat settings, Matrix : Default (H.263)\nCodec ID : V_MS/VFW/FOURCC / XVID\nCodec ID/Hint : XviD\nDuration : 2h 11mn\nBit rate : 647 Kbps\nWidth : 640 pixels\nHeight : 272 pixels\nDisplay aspect ratio : 2.35:1\nFrame rate mode : Constant\nFrame rate : 23.976 fps\nColor space : YUV\nChroma subsampling : 4:2:0\nBit depth : 8 bits\nScan type : Progressive\nCompression mode : Lossy\nBits/(Pixel*Frame) : 0.155\nStream size : 609 MiB (87%)\nTitle : Mafiaking\nWriting library : XviD 1.2.1 (UTC 2008-12-04)\nLanguage : Hindi\nDefault : Yes\nForced : No\n\nAudio\nID : 2\nFormat : MPEG Audio\nFormat version : Version 1\nFormat profile : Layer 3\nMode : Joint stereo\nMode extension : MS Stereo\nCodec ID : A_MPEG/L3\nCodec ID/Hint : MP3\nDuration : 2h 11mn\nBit rate mode : Constant\nBit rate : 80.0 Kbps\nChannel(s) : 2 channels\nSampling rate : 32.0 KHz\nCompression mode : Lossy\nStream size : 75.3 MiB (11%)\nTitle : Mafiaking\nWriting library : LAME3.99r\nEncoding settings : -m j -V 4 -q 2 -lowpass 13.5 -b 80\nLanguage : Hindi\nDefault : Yes\nForced : No","torrent":{"xt":"urn:btih:84c2e6f8526f84ecc9781b09627972f6ffc21b88","amp;dn":"Humpty.Sharma.Ki.Dulhania.2014.Hindi.DVDRip.XviD.Esubs-N3kr4","amp;tr":["udp%3A%2F%2Ftracker.openbittorrent.com%3A80","udp%3A%2F%2Fopen.demonii.com%3A1337","udp%3A%2F%2Ftracker.coppersurfer.tk%3A6969","udp%3A%2F%2Fexodus.desync.com%3A6969"],"infoHash":"84c2e6f8526f84ecc9781b09627972f6ffc21b88","infoHashBuffer":{"type":"Buffer","data":[132,194,230,248,82,111,132,236,201,120,27,9,98,121,114,246,255,194,27,136]},"announce":[],"urlList":[]}}